PathFileType	4	(X/Y/Z)	Run_500 04
DataRate	CameraRate	NumFrames	NumMarkers	Units	OrigDataRate	OrigDataStartFrame	OrigNumFrames
100	100	4	41	mm	100	479	125
Frame#	Time	RASI			RPSI			RTH1			RTH2			RTH3			LTH1			LTH2			LTH3			RTB1			RTB2			RTB3			LTB1			LTB2			LTB3			RCAL			RTOE			RMT5			LCAL			LTOE			LACR			RACR			CLAV			C7			RUA1			RUA2			RUA3			RLEL			RMEL			LUA1			LUA2			LUA3			LLEL			LMEL			RFAsuperior			RFAradius			RFAulna			LFAsuperior			LFAradius			LFAulna			LPSI			LASI		
		X1	Y1	Z1	X2	Y2	Z2	X3	Y3	Z3	X4	Y4	Z4	X5	Y5	Z5	X6	Y6	Z6	X7	Y7	Z7	X8	Y8	Z8	X9	Y9	Z9	X10	Y10	Z10	X11	Y11	Z11	X12	Y12	Z12	X13	Y13	Z13	X14	Y14	Z14	X15	Y15	Z15	X16	Y16	Z16	X17	Y17	Z17	X18	Y18	Z18	X19	Y19	Z19	X20	Y20	Z20	X21	Y21	Z21	X22	Y22	Z22	X23	Y23	Z23	X24	Y24	Z24	X25	Y25	Z25	X26	Y26	Z26	X27	Y27	Z27	X28	Y28	Z28	X29	Y29	Z29	X30	Y30	Z30	X31	Y31	Z31	X32	Y32	Z32	X33	Y33	Z33	X34	Y34	Z34	X35	Y35	Z35	X36	Y36	Z36	X37	Y37	Z37	X38	Y38	Z38	X39	Y39	Z39	X40	Y40	Z40	X41	Y41	Z41	

479	  4.790000	1150.720512	968.512027	-275.500788	989.174743	1028.812176	-372.111618	1093.063206	798.878210	-220.786278	1125.313194	699.893978	-227.618648	1061.161945	562.663608	-259.711447	1110.193810	811.169357	-590.605106	1240.214046	734.999245	-569.276304	1235.686980	605.988696	-568.816663	1031.517354	306.158732	-344.547162	936.157454	239.899617	-308.843505	913.136195	180.756541	-378.171930	1150.398886	433.245215	-480.356069	1084.711969	454.017252	-524.424816	1011.138341	422.456093	-469.259219	749.375030	141.734756	-383.515152	973.393451	 67.378857	-396.615347	961.888566	 47.395601	-317.914376	852.429834	508.923792	-452.141351	899.130235	275.147043	-458.287286	1160.380101	1504.107046	-556.959771	1196.103110	1470.464971	-220.649426	1234.084171	1418.462198	-367.363445	1118.791834	1516.659450	-382.813005	1163.799355	1341.972334	-130.857577	1094.326620	1323.394017	-124.811585	1119.768820	1264.708114	-94.640995	1102.968707	1194.175500	-58.978730	1062.922274	1163.611398	-138.388045	1062.818256	1435.559310	-633.967301	978.096582	1417.212624	-604.526813	975.535869	1351.081341	-667.056001	929.055722	1302.210372	-691.469746	894.617158	1290.396228	-607.091716	1186.925164	1213.192092	-89.640751	1313.502081	1237.636532	-192.342162	1331.426444	1180.240862	-153.909549	986.024440	1231.771937	-687.743936	1113.338876	1134.666667	-615.066109	1069.439511	1083.884879	-643.359163	993.086555	1022.929647	-463.980709	1163.926862	956.055731	-529.351396	
480	  4.800000	1153.084897	970.368954	-274.451312	992.426159	1034.678815	-370.722477	1086.127526	801.825884	-221.575859	1110.504347	700.071119	-228.686228	1034.866432	566.866294	-259.285339	1116.664731	823.311254	-592.286904	1248.336653	753.317084	-568.557407	1250.651518	624.015336	-567.894151	992.334403	310.295125	-342.120829	894.305529	247.382786	-307.202464	870.194147	187.406541	-376.291445	1179.388871	438.104006	-482.048115	1110.297895	453.674472	-523.539273	1041.398073	411.764818	-468.823559	706.833964	156.286160	-381.296880	924.527662	 66.475949	-396.999776	911.365966	 47.617665	-318.519769	872.917861	478.722239	-447.447943	950.008858	253.027517	-461.113741	1154.190715	1512.573082	-557.364397	1199.283143	1480.376449	-224.268509	1233.655183	1427.613057	-371.266710	1117.178703	1524.018843	-382.971936	1172.050688	1350.631990	-134.446854	1102.925415	1330.864229	-126.650885	1130.392631	1272.808349	-97.324081	1116.937265	1200.399572	-62.408513	1074.561535	1170.214967	-141.179908	1052.714390	1450.463434	-631.484780	969.947770	1433.756544	-599.804772	962.026005	1369.128711	-663.814205	913.168874	1321.921352	-686.633935	880.587668	1310.620264	-601.552545	1198.363847	1225.278668	-96.663153	1317.322278	1259.647452	-204.891740	1340.728817	1202.859157	-168.823178	969.320446	1252.235118	-684.629998	1097.285040	1153.385431	-615.503596	1052.224845	1102.945885	-641.617949	995.881340	1030.401415	-462.457219	1166.646077	964.042961	-528.818938	
481	  4.810000	1156.258018	973.458321	-273.578975	995.966270	1040.441341	-369.860635	1081.020756	806.029473	-222.585439	1098.038558	702.632637	-230.369536	1010.560389	573.929765	-257.928562	1123.157303	835.825437	-593.821719	1255.483245	771.082690	-567.819848	1263.357421	641.581708	-566.959980	954.468808	317.415371	-338.977868	854.222353	257.875682	-305.105696	829.578902	196.418813	-373.948205	1206.502103	442.468761	-482.399767	1135.120842	451.587713	-522.459901	1072.107925	400.577484	-468.096297	667.606631	173.287421	-379.409576	876.158374	 65.939333	-397.316689	861.055203	 47.962215	-319.066978	896.456688	446.972043	-444.046668	1001.881071	233.231410	-462.005425	1148.815253	1521.297062	-557.686709	1202.245326	1490.982905	-228.308790	1233.206976	1437.529624	-375.098475	1115.154498	1531.485360	-383.498384	1180.164071	1360.269403	-138.024877	1111.518911	1339.603874	-127.840076	1140.910672	1282.162034	-99.822215	1130.256795	1208.461647	-65.303791	1084.878705	1178.392378	-143.131986	1044.330929	1465.693658	-628.913363	963.434102	1450.744205	-594.468360	949.924034	1388.070985	-659.568735	898.603336	1342.352189	-680.588851	869.110839	1331.296676	-594.369624	1208.688095	1238.455122	-103.093075	1319.203010	1281.322822	-216.825188	1347.703143	1225.516534	-183.219916	953.841941	1272.742630	-680.790632	1083.195658	1172.373424	-615.625305	1037.004239	1122.291653	-639.496087	1000.424239	1038.238834	-461.577206	1171.164686	972.451310	-528.989991	
482	  4.820000	1160.096306	977.605393	-272.873343	999.662532	1045.890967	-369.330943	1077.485412	810.250660	-223.897166	1087.719297	706.550908	-232.316796	988.757130	583.068778	-255.988999	1129.787917	848.149730	-594.915227	1261.739042	787.995734	-567.146772	1274.072842	658.334223	-566.221343	918.289253	327.368970	-335.488458	816.251742	270.952787	-302.515253	791.885789	207.473650	-370.920662	1232.058708	445.871224	-481.440353	1159.758980	447.371502	-521.286529	1103.467951	388.963390	-466.941887	632.213135	192.096223	-377.436701	828.662479	 66.009776	-397.150618	811.582443	 48.336214	-319.147237	923.321422	414.375046	-442.138689	1054.432572	215.677748	-460.483682	1144.203078	1530.082565	-558.064987	1204.482300	1501.833136	-232.417903	1232.698024	1447.642837	-378.803145	1112.955100	1538.956094	-384.378538	1187.837048	1370.666736	-141.527811	1120.001029	1349.484840	-127.764114	1151.317016	1292.312224	-102.093984	1142.742419	1217.893342	-67.582041	1094.175816	1187.754605	-144.300631	1037.508640	1480.873747	-626.594740	958.599505	1467.465700	-588.503013	939.476484	1407.310226	-654.426130	885.388221	1362.953159	-673.391175	860.155517	1351.908487	-585.668324	1217.717867	1252.259812	-108.746584	1319.481160	1302.004213	-227.990140	1352.599397	1247.488287	-196.761694	939.426603	1292.680736	-676.282021	1071.124352	1191.135886	-615.746992	1023.843185	1141.512237	-637.521676	1006.303139	1045.918449	-461.226484	1177.012051	980.726630	-529.597562	
